<svg width="215" height="28" viewBox="0 0 215 28" fill="none" xmlns="http://www.w3.org/2000/svg">
<path d="M5.20128 7.64255H9.50968V9.82885H5.20128V21.8189H2.56188V9.82885H0.0136719V7.64255H2.56188V6.73189C2.56188 3.84845 4.10866 1.93588 7.26426 1.93588C8.32586 1.93588 9.05367 2.05815 9.6319 2.1786L9.50968 4.15139C8.84208 4.06014 8.26567 3.96889 7.65826 3.96889C5.92907 3.96889 5.20128 4.93978 5.20128 6.79212V7.64255Z" fill="white"/>
<path d="M11.5415 4.91054V2.51254H14.5749V4.91054H11.5415ZM11.7239 21.817V7.64252H14.3633V21.817H11.7239Z" fill="white"/>
<path d="M20.4519 11.376H20.6653C21.3621 8.94694 22.9709 7.27709 25.7015 7.27709C29.2511 7.27709 31.1919 9.94884 31.1919 14.7448C31.1919 19.5701 29.1599 22.1816 25.8219 22.1816C23.0621 22.1816 21.3329 20.4205 20.6343 17.9933H20.4519V21.8184H17.8125V2.32961H20.4519V11.376ZM28.5817 14.7448C28.5817 11.3157 27.3377 9.6751 24.6381 9.6751C22.0899 9.6751 20.4519 11.4362 20.4519 14.2284V15.3215C20.4519 17.9915 22.0899 19.8438 24.6381 19.8438C27.3085 19.8438 28.5817 18.1429 28.5817 14.7448Z" fill="white"/>
<path d="M33.8408 21.8161V7.64157H36.389V11.6474L36.6006 11.6766C37.3302 8.58143 38.7858 7.48827 40.9692 7.48827H41.5146V10.4027H40.7868C37.7224 10.4027 36.4784 11.6163 36.4784 14.8046V21.8161H33.8408Z" fill="white"/>
<path d="M52.395 18.4467H52.1213C51.4227 20.7845 49.6023 22.1203 47.0852 22.1203C44.4166 22.1203 42.6855 20.9067 42.6855 18.1747C42.6855 15.7165 44.2633 13.9244 47.7217 13.9244H52.2727V12.771C52.2727 10.6468 51.4538 9.4934 49.1482 9.4934C47.2366 9.4934 46.175 10.4332 45.7208 12.3148L43.2328 11.7089C43.8092 8.97692 45.8412 7.30708 49.2394 7.30708C53.183 7.30708 54.9121 9.21965 54.9121 12.74V21.8156H52.395V18.4467ZM52.2746 16.5341V15.7457H48.1176C46.268 15.7457 45.2045 16.4757 45.2045 17.87C45.2045 18.9923 45.9032 19.9942 47.9972 19.9942C50.6056 19.9942 52.2746 18.5379 52.2746 16.5341Z" fill="white"/>
<path d="M62.6791 26.8549L63.1041 24.4259C63.7407 24.5481 64.3171 24.6394 64.9245 24.6394C66.5935 24.6394 67.5329 24.2142 68.6565 21.6939L62.6499 7.63984H65.5629L67.3833 12.7078C68.0509 14.5601 69.0523 17.2611 69.7801 19.4766H70.2343C70.9931 17.2008 71.9033 14.5893 72.5089 12.7388L74.2381 7.63984H77.0599L71.0533 21.9968C69.5667 25.5172 67.8375 27.0356 64.8333 27.0356C63.9541 27.0374 63.3175 26.9461 62.6791 26.8549Z" fill="white"/>
<path d="M87.4968 21.8169H84.8574V7.64237H87.4348V11.316H87.7084C88.4964 8.76655 90.3168 7.2792 92.8358 7.2792C95.6266 7.2792 96.991 8.94904 97.2646 11.5295H97.5382C98.2058 8.91984 99.8748 7.2792 102.695 7.2792C105.85 7.2792 107.337 9.34323 107.337 12.4402V21.8187H104.698V13.0771C104.698 11.1353 103.848 9.67721 101.633 9.67721C99.054 9.67721 97.416 11.2868 97.416 13.714V21.8187H94.7766V13.0771C94.7766 11.1353 93.9266 9.67721 91.7122 9.67721C89.1932 9.67721 87.495 11.2868 87.495 13.714V21.8169H87.4968Z" fill="white"/>
<path d="M109.809 14.6847C109.809 10.0402 112.599 7.27716 116.908 7.27716C121.185 7.27716 124.007 10.0402 124.007 14.6847C124.007 19.2982 121.399 22.1816 116.908 22.1816C112.417 22.1816 109.809 19.2982 109.809 14.6847ZM112.448 14.6537C112.448 17.8419 113.874 19.8749 116.877 19.8749C119.881 19.8749 121.368 17.8419 121.368 14.6537C121.368 11.4673 119.821 9.55471 116.908 9.55471C113.995 9.55471 112.448 11.4655 112.448 14.6537ZM113.904 4.69848L120.912 0.599609L121.942 2.54137L114.571 6.00151L113.904 4.69848Z" fill="white"/>
<path d="M129.946 21.8161L124.333 7.64158H127.216L129.127 13.0745C129.884 15.2608 130.705 17.4453 131.341 19.5404H131.947C132.584 17.4763 133.404 15.2298 134.161 13.0745L136.044 7.64158H138.864L133.311 21.8161H129.946Z" fill="white"/>
<path d="M140.511 4.91054V2.51254H143.545V4.91054H140.511ZM140.692 21.817V7.64252H143.331V21.817H140.692Z" fill="white"/>
<path d="M149.5 21.8166H146.86V2.32961H149.5V21.8166Z" fill="white"/>
<path d="M158.357 14.8365C158.357 10.1007 161.119 7.27746 165.396 7.27746C169.643 7.27746 171.768 9.88899 171.768 13.8035C171.768 14.2288 171.739 14.8657 171.677 15.5026H160.999C161.21 18.386 162.728 19.9646 165.458 19.9646C168.007 19.9646 168.886 18.6908 169.342 17.1122L171.647 17.7491C170.951 20.4501 169.13 22.1509 165.458 22.1509C161.059 22.1509 158.357 19.5412 158.357 14.8365ZM161.028 13.5918H169.311C169.189 10.8909 167.946 9.37252 165.336 9.37252C162.848 9.37252 161.331 10.7686 161.028 13.5918Z" fill="white"/>
<path d="M183.223 18.4467H182.949C182.251 20.7845 180.432 22.1203 177.913 22.1203C175.243 22.1203 173.514 20.9067 173.514 18.1747C173.514 15.7165 175.091 13.9244 178.55 13.9244H183.101V12.771C183.101 10.6468 182.282 9.4934 179.976 9.4934C178.065 9.4934 177.003 10.4332 176.549 12.3148L174.061 11.7089C174.637 8.97692 176.669 7.30708 180.067 7.30708C184.011 7.30708 185.74 9.21965 185.74 12.74V21.8156H183.223V18.4467ZM183.103 16.5341V15.7457H178.946C177.096 15.7457 176.033 16.4757 176.033 17.87C176.033 18.9923 176.731 19.9942 178.823 19.9942C181.434 19.9942 183.103 18.5379 183.103 16.5341Z" fill="white"/>
<path d="M187.927 17.5064L190.324 17.021C190.809 18.8733 191.842 20.1781 194.51 20.1781C196.513 20.1781 197.513 19.419 197.544 18.0539C197.544 16.718 196.602 16.1413 193.629 15.6249C189.959 14.9569 188.593 13.6521 188.593 11.4055C188.593 8.91628 190.413 7.27746 194.023 7.27746C197.755 7.27746 199.059 8.88708 199.696 11.4366L197.27 11.953C196.816 9.98023 195.813 9.25208 193.963 9.25208C192.082 9.25208 191.143 10.0113 191.143 11.2559C191.143 12.3782 191.871 13.1685 194.662 13.6229C198.727 14.3529 200.092 15.6869 200.092 17.9626C200.092 20.4811 198.423 22.1819 194.479 22.1819C190.05 22.1819 188.504 20.3296 187.927 17.5064Z" fill="white"/>
<path d="M200.619 26.8549L201.044 24.4259C201.681 24.5481 202.257 24.6394 202.864 24.6394C204.533 24.6394 205.473 24.2142 206.596 21.6939L200.59 7.63984H203.503L205.323 12.7078C205.991 14.5601 206.992 17.2611 207.72 19.4766H208.174C208.933 17.2008 209.843 14.5893 210.449 12.7388L212.178 7.63984H215L208.993 21.9968C207.507 25.5172 205.777 27.0356 202.773 27.0356C201.894 27.0374 201.257 26.9461 200.619 26.8549Z" fill="white"/>
</svg>
